HIERARCHY
ROOT SpineBase
{
  OFFSET 0.000000 0.000000 0.000000
  CHANNELS 6 Xposition Yposition Zposition Zrotation Xrotation Yrotation
  JOINT SpineMid
  {
    OFFSET 0.000000 36.320957 0.000000
    CHANNELS 3 Zrotation Xrotation Yrotation
    JOINT SpineShoulder
    {
      OFFSET -0.007636 26.411205 -0.921741
      CHANNELS 3 Zrotation Xrotation Yrotation
      JOINT Neck
      {
        OFFSET -0.064883 8.581328 -0.581179
        CHANNELS 3 Zrotation Xrotation Yrotation
        JOINT Head
        {
          OFFSET -2.603525 12.343369 6.534629
          CHANNELS 3 Zrotation Xrotation Yrotation
          End Site
          {
            OFFSET 0 0 0
          }
        }
      }
      JOINT ShoulderLeft
      {
        OFFSET -0.270999 -5.839815 -14.614262
        CHANNELS 3 Zrotation Xrotation Yrotation
        JOINT ElbowLeft
        {
          OFFSET 5.317367 -27.972303 -6.928647
          CHANNELS 3 Zrotation Xrotation Yrotation
          JOINT WristLeft
          {
            OFFSET 10.624781 -20.738990 -1.836129
            CHANNELS 3 Zrotation Xrotation Yrotation
            JOINT HandLeft
            {
              OFFSET 1.008747 -6.470724 1.617986
              CHANNELS 3 Zrotation Xrotation Yrotation
              JOINT HandTipLeft
              {
                OFFSET 3.406708 -7.519144 1.761233
                CHANNELS 3 Zrotation Xrotation Yrotation
                End Site
                {
                  OFFSET 0 0 0
                }
              }
              JOINT ThumbLeft
              {
                OFFSET -4.478667 0.073500 1.113179
                CHANNELS 3 Zrotation Xrotation Yrotation
                End Site
                {
                  OFFSET 0 0 0
                }
              }
            }
          }
        }
      }
      JOINT ShoulderRight
      {
        OFFSET 12.180782 -8.096678 11.442514
        CHANNELS 3 Zrotation Xrotation Yrotation
        JOINT ElbowRight
        {
          OFFSET 5.021990 -26.626594 7.916531
          CHANNELS 3 Zrotation Xrotation Yrotation
          JOINT WristRight
          {
            OFFSET 4.507224 -25.148467 2.550339
            CHANNELS 3 Zrotation Xrotation Yrotation
            JOINT HandRight
            {
              OFFSET 1.052395 -2.463389 8.383002
              CHANNELS 3 Zrotation Xrotation Yrotation
              JOINT HandTipRight
              {
                OFFSET 1.335863 0.501322 2.290959
                CHANNELS 3 Zrotation Xrotation Yrotation
                End Site
                {
                  OFFSET 0 0 0
                }
              }
              JOINT ThumbRight
              {
                OFFSET 0.096196 0.450449 -2.462614
                CHANNELS 3 Zrotation Xrotation Yrotation
                End Site
                {
                  OFFSET 0 0 0
                }
              }
            }
          }
        }
      }
    }
  }
  JOINT HipLeft
  {
    OFFSET -4.206551 2.159242 -6.939311
    CHANNELS 3 Zrotation Xrotation Yrotation
    JOINT KneeLeft
    {
      OFFSET 14.259815 -31.575170 1.685842
      CHANNELS 3 Zrotation Xrotation Yrotation
      JOINT AnkleLeft
      {
        OFFSET -1.121012 -37.831606 6.539015
        CHANNELS 3 Zrotation Xrotation Yrotation
        JOINT FootLeft
        {
          OFFSET 4.783843 -6.679913 -1.327956
          CHANNELS 3 Zrotation Xrotation Yrotation
          End Site
          {
            OFFSET 0 0 0
          }
        }
      }
    }
  }
  JOINT HipRight
  {
    OFFSET 4.694739 -0.601034 -0.370993
    CHANNELS 3 Zrotation Xrotation Yrotation
    JOINT KneeRight
    {
      OFFSET 17.133402 -29.023691 16.629467
      CHANNELS 3 Zrotation Xrotation Yrotation
      JOINT AnkleRight
      {
        OFFSET -1.126399 -36.459702 12.471910
        CHANNELS 3 Zrotation Xrotation Yrotation
        JOINT FootRight
        {
          OFFSET 9.911010 -2.868473 -7.967213
          CHANNELS 3 Zrotation Xrotation Yrotation
          End Site
          {
            OFFSET 0 0 0
          }
        }
      }
    }
  }
}
MOTION
Frames: 10
Frame Time: 0.033333
-18.738688 78.147029 307.296957 -0.971448 -0.661238 -45.747607 0.204357 1.157216 45.739938 -1.403894 -0.530922 -0.105581 -2.522846 0.592099 2.238469 0.000000 0.000000 0.000000 -0.144646 2.648458 0.918866 1.867439 -0.517301 0.054555 2.952680 8.080373 1.360727 -2.353422 -8.271231 -1.566575 0.000000 0.000000 0.000000 0.000000 0.000000 0.000000 1.402974 0.533348 0.092545 4.134669 -0.835918 0.297693 -3.701448 21.075011 24.268607 -53.789963 40.824300 32.226074 0.000000 0.000000 0.000000 0.000000 0.000000 0.000000 -2.171763 0.558174 46.248291 1.423182 0.325332 -0.618306 30.162564 32.819099 8.788818 0.000000 0.000000 0.000000 -3.584850 5.311846 49.557907 -0.065524 -6.088799 -3.333497 0.534089 2.540787 3.291750 0.000000 0.000000 0.000000
-16.779179 78.796808 308.496488 0.392931 -0.738414 -47.418924 0.235598 0.043174 47.440755 -1.179943 -0.235216 -0.061037 -7.600202 -0.409364 4.210111 0.000000 0.000000 0.000000 -1.390842 3.750147 1.116449 2.467603 0.215309 0.499500 2.450067 5.202207 0.495378 -2.460892 -6.658859 -1.362317 0.000000 0.000000 0.000000 0.000000 0.000000 0.000000 0.594949 1.118716 0.042971 6.358209 -0.732148 0.549076 -12.592406 36.534067 34.358207 -44.628836 34.345365 13.283911 0.000000 0.000000 0.000000 0.000000 0.000000 0.000000 -5.531509 -1.729369 48.105020 3.817529 -0.368925 -0.866726 28.115820 31.996880 9.653672 0.000000 0.000000 0.000000 -7.617168 3.884454 51.182479 1.430499 -7.598239 -3.420923 -0.804043 0.214971 3.034602 0.000000 0.000000 0.000000
-14.051140 79.339205 310.036997 2.416259 -1.137080 -49.558259 0.306018 -0.381952 49.674907 -1.436115 -0.272666 -0.012429 -14.061208 -1.935676 6.428548 0.000000 0.000000 0.000000 -3.725250 4.595635 1.344320 3.446334 1.217604 0.843787 2.591731 2.720776 -0.116964 -2.269137 -5.834207 -1.292145 0.000000 0.000000 0.000000 0.000000 0.000000 0.000000 -0.886184 1.893446 -0.031094 8.515711 -0.408473 0.811253 -24.147261 48.623776 43.414317 -39.368791 22.514105 -0.964417 0.000000 0.000000 0.000000 0.000000 0.000000 0.000000 -10.443703 -5.142915 50.275323 7.426454 -1.558824 -1.133087 27.936218 32.740060 10.184896 0.000000 0.000000 0.000000 -13.214484 1.361005 52.674993 3.385190 -9.633604 -3.336659 0.713102 0.319924 4.247662 0.000000 0.000000 0.000000
-10.846539 79.815024 311.660024 4.889706 -1.719166 -51.389229 0.306864 -0.675514 51.655834 -1.703400 -0.304546 0.057283 -20.859174 -3.864256 8.478036 0.000000 0.000000 0.000000 -6.634237 5.343682 1.602184 4.599275 2.112073 1.062415 2.656292 -0.530572 -0.717402 -2.103508 -2.991191 -0.640551 0.000000 0.000000 0.000000 0.000000 0.000000 0.000000 -2.841060 2.700001 -0.105255 10.328637 0.089524 1.041424 -31.655710 54.670985 45.456890 -37.822752 9.178134 -7.392517 0.000000 0.000000 0.000000 0.000000 0.000000 0.000000 -16.337707 -9.485062 51.726952 11.906347 -3.125318 -1.309378 27.932949 33.453446 10.509387 0.000000 0.000000 0.000000 -19.596759 -2.082775 53.012987 6.647207 -11.597501 -2.486616 1.841423 0.316422 5.132725 0.000000 0.000000 0.000000
-7.527989 80.278091 313.207412 7.496941 -2.329921 -52.657523 0.212398 -0.885449 53.110294 -1.899503 -0.325921 0.138299 -27.716910 -6.277283 10.294579 0.000000 0.000000 0.000000 -10.217967 5.450892 1.923868 5.732405 2.959722 1.005659 4.282003 -1.817812 -0.567161 -3.351237 -1.349406 -0.543260 0.000000 0.000000 0.000000 0.000000 0.000000 0.000000 -5.002221 3.401440 -0.165037 11.517054 0.708651 1.206360 -36.442152 57.264203 48.515450 -39.367747 0.454962 -9.097810 0.000000 0.000000 0.000000 0.000000 0.000000 0.000000 -22.498689 -14.206807 52.030974 16.675954 -4.637278 -1.309363 27.705710 34.314666 11.015882 0.000000 0.000000 0.000000 -26.270511 -5.928498 51.911938 10.747209 -13.527518 -0.984441 2.670477 0.470350 6.150573 0.000000 0.000000 0.000000
-4.488839 80.762392 314.588857 9.895323 -2.974849 -52.940160 0.016579 -0.977886 53.587276 -1.962198 -0.343860 0.220325 -33.358275 -9.005304 11.261340 0.000000 0.000000 0.000000 -13.895465 5.109216 2.234919 6.657031 3.609878 0.722936 6.071369 -2.258083 -0.216475 -3.390284 0.163275 -0.085915 0.000000 0.000000 0.000000 0.000000 0.000000 0.000000 -7.129158 3.995945 -0.204784 11.808178 1.392059 1.284992 -36.988548 56.742557 50.082564 -39.544965 -3.757622 -10.757831 0.000000 0.000000 0.000000 0.000000 0.000000 0.000000 -28.594210 -18.156527 51.034202 21.133385 -6.076127 -1.190908 27.098814 35.298849 11.751936 0.000000 0.000000 0.000000 -32.409857 -9.046031 49.561208 14.566539 -15.020408 0.635767 3.330641 0.710235 7.397448 0.000000 0.000000 0.000000
-2.086403 81.183351 315.627471 11.760869 -3.518686 -52.177751 -0.160554 -0.955869 52.991820 -1.838334 -0.430684 0.298706 -38.539228 -11.903027 11.959276 0.000000 0.000000 0.000000 -17.393586 4.433119 2.518671 7.465072 4.168881 0.292384 7.764139 -1.873373 0.209342 -4.563961 2.491606 0.537146 0.000000 0.000000 0.000000 0.000000 0.000000 0.000000 -9.022661 4.521591 -0.221913 10.938423 2.083472 1.267144 -32.692443 52.707623 50.463073 -37.795165 1.373214 -11.462296 0.000000 0.000000 0.000000 0.000000 0.000000 0.000000 -34.008005 -20.549390 49.114782 24.714474 -7.311170 -1.034378 26.181842 36.263977 12.672950 0.000000 0.000000 0.000000 -37.373202 -10.901915 46.442934 17.886992 -15.931033 2.279535 3.582211 1.031333 8.669604 0.000000 0.000000 0.000000
-0.664476 81.453465 316.301170 12.840143 -3.969141 -50.728952 -0.326634 -0.837734 51.651160 -1.519305 -0.572497 0.363129 -41.151238 -15.232153 11.126178 0.000000 0.000000 0.000000 -20.283172 3.366544 2.691522 7.976679 4.931980 -0.112513 9.574340 -1.198916 0.629048 -5.140090 4.927933 1.408484 0.000000 0.000000 0.000000 0.000000 0.000000 0.000000 -10.410155 4.961389 -0.217990 11.047991 2.092503 1.276734 -33.178601 53.051208 50.648772 -37.725362 3.133568 -11.437867 0.000000 0.000000 0.000000 0.000000 0.000000 0.000000 -37.509590 -20.926060 47.237087 26.563879 -8.021589 -0.954231 24.525041 37.412542 14.104128 0.000000 0.000000 0.000000 -40.709784 -11.177230 43.754416 19.946677 -16.455434 3.318423 3.499687 1.292468 10.396461 0.000000 0.000000 0.000000
-0.604999 81.490653 316.436299 12.880207 -4.252423 -48.382129 -0.508205 -0.588299 49.310906 -0.999175 -0.750939 0.401775 -40.808444 -18.752381 8.784912 0.000000 0.000000 0.000000 -22.002216 1.982394 2.645905 7.964357 5.784863 -0.391867 11.713711 -0.112164 1.118401 -6.236881 6.843693 2.014178 0.000000 0.000000 0.000000 0.000000 0.000000 0.000000 -11.047043 5.165146 -0.212397 11.101722 2.047256 1.277361 -34.339507 53.668947 52.120539 -37.717615 2.833470 -12.419334 0.000000 0.000000 0.000000 0.000000 0.000000 0.000000 -38.198588 -18.896580 45.668264 26.084810 -8.090530 -1.085714 22.190973 38.584941 15.996670 0.000000 0.000000 0.000000 -41.277132 -9.741628 41.753906 20.173133 -16.182224 3.559169 2.947810 1.398693 12.405368 0.000000 0.000000 0.000000
-0.821181 81.396361 316.762980 12.513632 -4.638400 -45.783002 -0.116721 -0.225968 46.736536 -0.816720 -0.701206 0.410132 -41.135587 -22.612599 6.784401 0.000000 0.000000 0.000000 -23.174743 0.770351 2.563249 7.749175 7.022426 -0.396075 13.333303 0.701549 1.345421 -6.826815 9.652695 3.191564 0.000000 0.000000 0.000000 0.000000 0.000000 0.000000 -11.391580 5.571381 -0.176492 11.054838 1.955121 1.265978 -34.217881 53.663151 51.996003 -37.723118 2.855517 -12.268998 0.000000 0.000000 0.000000 0.000000 0.000000 0.000000 -38.387772 -15.868618 44.476392 24.988813 -8.495785 -1.401582 19.229757 39.884001 18.423717 0.000000 0.000000 0.000000 -41.145595 -7.585600 40.217825 19.600417 -15.775865 3.298587 2.406569 1.279698 14.907598 0.000000 0.000000 0.000000
